<?xml version="1.0" encoding="iso-8859-1"?>
<!-- Generator: Adobe Illustrator 16.0.0, SVG Export Plug-In . SVG Version: 6.00 Build 0)  -->
<!DOCTYPE svg PUBLIC "-//W3C//DTD SVG 1.1//EN" "http://www.w3.org/Graphics/SVG/1.1/DTD/svg11.dtd">
<svg version="1.1" id="Capa_1" xmlns="http://www.w3.org/2000/svg" xmlns:xlink="http://www.w3.org/1999/xlink" x="0px" y="0px"
	 width="25.114px" height="25.114px" viewBox="0 0 25.114 25.114" style="enable-background:new 0 0 25.114 25.114;"
	 xml:space="preserve">
<g>
	<path d="M18.384,7.175c-1.538-2.603-1.275-6.662-1.272-6.703L17.145,0H7.972l0.033,0.472c0.003,0.041,0.269,4.095-1.272,6.703
		c-1.694,2.866-1.204,5.668-1.184,5.772c0.008,0.051,0.825,5.049,6.454,5.283v5.326h-0.007c-1.778,0.057-4.142,0.381-4.142,0.773
		c0,0.434,2.658,0.784,4.703,0.784s4.703-0.351,4.703-0.784c0-0.395-2.271-0.719-4.148-0.773v-5.328
		c5.629-0.233,6.447-5.229,6.452-5.267C19.587,12.843,20.076,10.04,18.384,7.175z M10.148,2.242V2.24c0,0-0.322,3.766-1.782,6.237
		s-1.011,4.914-1.011,4.914s0.319,2.123,2.22,3.424c-2.679-1.174-3.133-3.857-3.157-4.012c-0.005-0.026-0.446-2.607,1.074-5.179
		c1.371-2.319,1.44-5.539,1.412-6.741h7.308c-0.009,0.324-0.008,0.798,0.022,1.359H10.148z"/>
</g>
<g>
</g>
<g>
</g>
<g>
</g>
<g>
</g>
<g>
</g>
<g>
</g>
<g>
</g>
<g>
</g>
<g>
</g>
<g>
</g>
<g>
</g>
<g>
</g>
<g>
</g>
<g>
</g>
<g>
</g>
</svg>
